# xmcd CD database file
#
# Track frame offsets:
#	150
#	11485
#	36262
#	53240
#	74312
#	98122
#	116567
#	131970
#	149395
#	173947
#	190650
#	208885
#	228082
#	244080
#	270987
#	290312
#
# Disc length: 4254 seconds
#
# Revision: 0
# Processed by: cddbd v1.5.1PL0 Copyright (c) Steve Scherf et al.
# Submitted via: CDex 1.51
#
DISCID=e8109c10
DTITLE=Jazz - ¿Ô¶‚¬≈ºV
DYEAR=2001
DGENRE=Blues
TTITLE0=My Funny Valentine
TTITLE1=I've Got The Blues All Over
TTITLE2=I Wish It Would Rain Down
TTITLE3=Ugly Man
TTITLE4=Since I Met You
TTITLE5=What Mean Feeling
TTITLE6=The Fire Below
TTITLE7=Don't Say That No More
TTITLE8=Sweet Sixteen
TTITLE9=Deep Blues
TTITLE10=Instant Breakfast
TTITLE11=Living Too Close To The Edge
TTITLE12=It's A Dirty Job
TTITLE13=Love Me With A Feeling
TTITLE14=Breaking Up Somebody Else's Home
TTITLE15=Come Back Baby
EXTD=YEAR: 2001
EXTT0=
EXTT1=
EXTT2=
EXTT3=
EXTT4=
EXTT5=
EXTT6=
EXTT7=
EXTT8=
EXTT9=
EXTT10=
EXTT11=
EXTT12=
EXTT13=
EXTT14=
EXTT15=
PLAYORDER=
